EncodeNew-Bold Condensed.ufo
<glyph name="ampersand" format="1">
  <advance width="751"/>
  <unicode hex="0026"/>
  <outline>
    <contour>
      <point x="751" y="140" type="line"/>
      <point x="328" y="442" type="line" smooth="yes"/>
      <point x="298" y="463"/>
      <point x="284" y="483"/>
      <point x="284" y="513" type="curve" smooth="yes"/>
      <point x="284" y="558"/>
      <point x="317" y="586"/>
      <point x="414" y="586" type="curve" smooth="yes"/>
      <point x="447" y="586"/>
      <point x="489" y="581"/>
      <point x="520" y="575" type="curve"/>
      <point x="520" y="738" type="line"/>
      <point x="483" y="745"/>
      <point x="443" y="750"/>
      <point x="395" y="750" type="curve" smooth="yes"/>
      <point x="186" y="750"/>
      <point x="87" y="659"/>
      <point x="87" y="512" type="curve" smooth="yes"/>
      <point x="87" y="434"/>
      <point x="119" y="368"/>
      <point x="225" y="292" type="curve" smooth="yes"/>
      <point x="648" y="-10" type="line"/>
    </contour>
    <contour>
      <point x="510" y="-9"/>
      <point x="639" y="106"/>
      <point x="639" y="333" type="curve" smooth="yes"/>
      <point x="639" y="369"/>
      <point x="634" y="413"/>
      <point x="625" y="453" type="curve"/>
      <point x="468" y="453" type="line"/>
      <point x="477" y="413"/>
      <point x="482" y="368"/>
      <point x="482" y="331" type="curve" smooth="yes"/>
      <point x="482" y="182"/>
      <point x="415" y="135"/>
      <point x="332" y="135" type="curve" smooth="yes"/>
      <point x="265" y="135"/>
      <point x="225" y="168"/>
      <point x="225" y="227" type="curve" smooth="yes"/>
      <point x="225" y="266"/>
      <point x="239" y="293"/>
      <point x="261" y="316" type="curve"/>
      <point x="161" y="393" type="line"/>
      <point x="90" y="370"/>
      <point x="30" y="301"/>
      <point x="30" y="203" type="curve" smooth="yes"/>
      <point x="30" y="74"/>
      <point x="125" y="-9"/>
      <point x="309" y="-9" type="curve" smooth="yes"/>
    </contour>
  </outline>
</glyph>
<glyph name="zero" format="1">
  <advance width="600"/>
  <unicode hex="0030"/>
  <note>
    600
  </note>
  <outline>
    <contour>
      <point x="474" y="-10"/>
      <point x="568" y="105"/>
      <point x="568" y="370" type="curve" smooth="yes"/>
      <point x="568" y="635"/>
      <point x="474" y="750"/>
      <point x="300" y="750" type="curve" smooth="yes"/>
      <point x="126" y="750"/>
      <point x="32" y="635"/>
      <point x="32" y="370" type="curve" smooth="yes"/>
      <point x="32" y="105"/>
      <point x="126" y="-10"/>
      <point x="300" y="-10" type="curve" smooth="yes"/>
    </contour>
    <contour>
      <point x="246" y="152"/>
      <point x="223" y="199"/>
      <point x="223" y="370" type="curve" smooth="yes"/>
      <point x="223" y="541"/>
      <point x="246" y="588"/>
      <point x="300" y="588" type="curve" smooth="yes"/>
      <point x="355" y="588"/>
      <point x="377" y="541"/>
      <point x="377" y="370" type="curve" smooth="yes"/>
      <point x="377" y="199"/>
      <point x="355" y="152"/>
      <point x="300" y="152" type="curve" smooth="yes"/>
    </contour>
  </outline>
</glyph>
<glyph name="one" format="1">
  <advance width="600"/>
  <unicode hex="0031"/>
  <outline>
    <contour>
      <point x="422" y="0" type="line"/>
      <point x="422" y="743" type="line"/>
      <point x="302" y="743" type="line"/>
      <point x="103" y="621" type="line"/>
      <point x="103" y="440" type="line"/>
      <point x="302" y="562" type="line"/>
      <point x="226" y="622" type="line"/>
      <point x="226" y="0" type="line"/>
    </contour>
    <contour>
      <point x="547" y="0" type="line"/>
      <point x="547" y="171" type="line"/>
      <point x="96" y="171" type="line"/>
      <point x="96" y="0" type="line"/>
    </contour>
  </outline>
</glyph>
<glyph name="two" format="1">
  <advance width="600"/>
  <unicode hex="0032"/>
  <outline>
    <contour>
      <point x="540" y="0" type="line"/>
      <point x="540" y="171" type="line"/>
      <point x="281" y="171" type="line"/>
      <point x="291" y="124" type="line"/>
      <point x="415" y="290" type="line" smooth="yes"/>
      <point x="483" y="381"/>
      <point x="510" y="457"/>
      <point x="510" y="524" type="curve" smooth="yes"/>
      <point x="510" y="686"/>
      <point x="402" y="750"/>
      <point x="227" y="750" type="curve" smooth="yes"/>
      <point x="171" y="750"/>
      <point x="98" y="740"/>
      <point x="54" y="725" type="curve"/>
      <point x="54" y="562" type="line"/>
      <point x="96" y="578"/>
      <point x="147" y="586"/>
      <point x="195" y="586" type="curve" smooth="yes"/>
      <point x="283" y="586"/>
      <point x="316" y="558"/>
      <point x="316" y="507" type="curve" smooth="yes"/>
      <point x="316" y="463"/>
      <point x="292" y="412"/>
      <point x="236" y="338" type="curve" smooth="yes"/>
      <point x="64" y="110" type="line"/>
      <point x="64" y="0" type="line"/>
    </contour>
  </outline>
</glyph>
<glyph name="three" format="1">
  <advance width="600"/>
  <unicode hex="0033"/>
  <outline>
    <contour>
      <point x="425" y="-10"/>
      <point x="539" y="68"/>
      <point x="539" y="207" type="curve" smooth="yes"/>
      <point x="539" y="303"/>
      <point x="487" y="367"/>
      <point x="381" y="384" type="curve"/>
      <point x="381" y="378" type="line"/>
      <point x="467" y="396"/>
      <point x="517" y="460"/>
      <point x="517" y="551" type="curve" smooth="yes"/>
      <point x="517" y="679"/>
      <point x="423" y="750"/>
      <point x="242" y="750" type="curve" smooth="yes"/>
      <point x="181" y="750"/>
      <point x="108" y="740"/>
      <point x="62" y="725" type="curve"/>
      <point x="62" y="573" type="line"/>
      <point x="105" y="588"/>
      <point x="162" y="597"/>
      <point x="213" y="597" type="curve" smooth="yes"/>
      <point x="296" y="597"/>
      <point x="330" y="575"/>
      <point x="330" y="528" type="curve" smooth="yes"/>
      <point x="330" y="483"/>
      <point x="297" y="456"/>
      <point x="209" y="456" type="curve" smooth="yes"/>
      <point x="119" y="456" type="line"/>
      <point x="119" y="299" type="line"/>
      <point x="215" y="299" type="line" smooth="yes"/>
      <point x="313" y="299"/>
      <point x="352" y="273"/>
      <point x="352" y="221" type="curve" smooth="yes"/>
      <point x="352" y="168"/>
      <point x="315" y="143"/>
      <point x="223" y="143" type="curve" smooth="yes"/>
      <point x="175" y="143"/>
      <point x="107" y="150"/>
      <point x="55" y="163" type="curve"/>
      <point x="55" y="11" type="line"/>
      <point x="110" y="-3"/>
      <point x="169" y="-10"/>
      <point x="228" y="-10" type="curve" smooth="yes"/>
    </contour>
  </outline>
</glyph>
<glyph name="four" format="1">
  <advance width="600"/>
  <unicode hex="0034"/>
  <outline>
    <contour>
      <point x="583" y="143" type="line"/>
      <point x="583" y="293" type="line"/>
      <point x="185" y="293" type="line"/>
      <point x="211" y="253" type="line"/>
      <point x="420" y="740" type="line"/>
      <point x="235" y="740" type="line"/>
      <point x="19" y="253" type="line"/>
      <point x="19" y="143" type="line"/>
    </contour>
    <contour>
      <point x="503" y="0" type="line"/>
      <point x="503" y="490" type="line"/>
      <point x="350" y="490" type="line"/>
      <point x="330" y="293" type="line"/>
      <point x="330" y="0" type="line"/>
    </contour>
  </outline>
</glyph>
<glyph name="five" format="1">
  <advance width="600"/>
  <unicode hex="0035"/>
  <outline>
    <contour>
      <point x="432" y="-10"/>
      <point x="546" y="68"/>
      <point x="546" y="228" type="curve" smooth="yes"/>
      <point x="546" y="375"/>
      <point x="456" y="446"/>
      <point x="248" y="460" type="curve" smooth="yes"/>
      <point x="186" y="464" type="line"/>
      <point x="271" y="397" type="line"/>
      <point x="288" y="670" type="line"/>
      <point x="205" y="579" type="line"/>
      <point x="519" y="579" type="line"/>
      <point x="519" y="740" type="line"/>
      <point x="108" y="740" type="line"/>
      <point x="84" y="314" type="line"/>
      <point x="145" y="310" type="line" smooth="yes"/>
      <point x="322" y="298"/>
      <point x="359" y="273"/>
      <point x="359" y="220" type="curve" smooth="yes"/>
      <point x="359" y="168"/>
      <point x="321" y="143"/>
      <point x="233" y="143" type="curve" smooth="yes"/>
      <point x="185" y="143"/>
      <point x="117" y="151"/>
      <point x="65" y="165" type="curve"/>
      <point x="65" y="13" type="line"/>
      <point x="120" y="-2"/>
      <point x="179" y="-10"/>
      <point x="238" y="-10" type="curve" smooth="yes"/>
    </contour>
  </outline>
</glyph>
<glyph name="six" format="1">
  <advance width="600"/>
  <unicode hex="0036"/>
  <outline>
    <contour>
      <point x="469" y="-10"/>
      <point x="572" y="79"/>
      <point x="572" y="232" type="curve" smooth="yes"/>
      <point x="572" y="389"/>
      <point x="469" y="456"/>
      <point x="355" y="456" type="curve" smooth="yes"/>
      <point x="294" y="456"/>
      <point x="235" y="433"/>
      <point x="204" y="390" type="curve"/>
      <point x="204" y="250" type="line"/>
      <point x="232" y="293"/>
      <point x="274" y="310"/>
      <point x="315" y="310" type="curve" smooth="yes"/>
      <point x="362" y="310"/>
      <point x="395" y="284"/>
      <point x="395" y="225" type="curve" smooth="yes"/>
      <point x="395" y="164"/>
      <point x="362" y="138"/>
      <point x="322" y="138" type="curve" smooth="yes"/>
      <point x="270" y="138"/>
      <point x="237" y="170"/>
      <point x="237" y="314" type="curve" smooth="yes"/>
      <point x="237" y="397" type="line" smooth="yes"/>
      <point x="237" y="536"/>
      <point x="293" y="593"/>
      <point x="407" y="593" type="curve" smooth="yes"/>
      <point x="457" y="593"/>
      <point x="493" y="588"/>
      <point x="535" y="576" type="curve"/>
      <point x="535" y="732" type="line"/>
      <point x="500" y="745"/>
      <point x="450" y="750"/>
      <point x="401" y="750" type="curve" smooth="yes"/>
      <point x="184" y="750"/>
      <point x="45" y="628"/>
      <point x="45" y="351" type="curve" smooth="yes"/>
      <point x="45" y="89"/>
      <point x="157" y="-10"/>
      <point x="320" y="-10" type="curve" smooth="yes"/>
    </contour>
  </outline>
</glyph>
<glyph name="seven" format="1">
  <advance width="600"/>
  <unicode hex="0037"/>
  <outline>
    <contour>
      <point x="312" y="0" type="line"/>
      <point x="524" y="630" type="line"/>
      <point x="524" y="740" type="line"/>
      <point x="52" y="740" type="line"/>
      <point x="52" y="569" type="line"/>
      <point x="402" y="569" type="line"/>
      <point x="331" y="630" type="line"/>
      <point x="109" y="0" type="line"/>
    </contour>
  </outline>
</glyph>
<glyph name="eight" format="1">
  <advance width="600"/>
  <unicode hex="0038"/>
  <outline>
    <contour>
      <point x="471" y="-10"/>
      <point x="572" y="78"/>
      <point x="572" y="206" type="curve" smooth="yes"/>
      <point x="572" y="316"/>
      <point x="523" y="381"/>
      <point x="356" y="442" type="curve" smooth="yes"/>
      <point x="245" y="483"/>
      <point x="228" y="503"/>
      <point x="228" y="546" type="curve" smooth="yes"/>
      <point x="228" y="584"/>
      <point x="257" y="611"/>
      <point x="310" y="611" type="curve" smooth="yes"/>
      <point x="360" y="611"/>
      <point x="389" y="588"/>
      <point x="389" y="544" type="curve" smooth="yes"/>
      <point x="389" y="500"/>
      <point x="366" y="466"/>
      <point x="322" y="433" type="curve"/>
      <point x="435" y="378" type="line"/>
      <point x="526" y="426"/>
      <point x="555" y="492"/>
      <point x="555" y="559" type="curve" smooth="yes"/>
      <point x="555" y="677"/>
      <point x="459" y="750"/>
      <point x="308" y="750" type="curve" smooth="yes"/>
      <point x="139" y="750"/>
      <point x="43" y="667"/>
      <point x="43" y="540" type="curve" smooth="yes"/>
      <point x="43" y="434"/>
      <point x="97" y="356"/>
      <point x="263" y="300" type="curve" smooth="yes"/>
      <point x="364" y="266"/>
      <point x="389" y="242"/>
      <point x="389" y="197" type="curve" smooth="yes"/>
      <point x="389" y="155"/>
      <point x="361" y="129"/>
      <point x="301" y="129" type="curve" smooth="yes"/>
      <point x="240" y="129"/>
      <point x="209" y="157"/>
      <point x="209" y="206" type="curve" smooth="yes"/>
      <point x="209" y="246"/>
      <point x="233" y="293"/>
      <point x="286" y="315" type="curve"/>
      <point x="167" y="370" type="line"/>
      <point x="73" y="331"/>
      <point x="27" y="266"/>
      <point x="27" y="189" type="curve" smooth="yes"/>
      <point x="27" y="74"/>
      <point x="119" y="-10"/>
      <point x="301" y="-10" type="curve" smooth="yes"/>
    </contour>
  </outline>
</glyph>
<glyph name="nine" format="1">
  <advance width="600"/>
  <unicode hex="0039"/>
  <outline>
    <contour>
      <point x="131" y="750"/>
      <point x="28" y="661"/>
      <point x="28" y="508" type="curve" smooth="yes"/>
      <point x="28" y="351"/>
      <point x="131" y="284"/>
      <point x="245" y="284" type="curve" smooth="yes"/>
      <point x="306" y="284"/>
      <point x="365" y="307"/>
      <point x="396" y="350" type="curve"/>
      <point x="396" y="490" type="line"/>
      <point x="368" y="447"/>
      <point x="326" y="430"/>
      <point x="285" y="430" type="curve" smooth="yes"/>
      <point x="238" y="430"/>
      <point x="205" y="456"/>
      <point x="205" y="515" type="curve" smooth="yes"/>
      <point x="205" y="576"/>
      <point x="238" y="602"/>
      <point x="278" y="602" type="curve" smooth="yes"/>
      <point x="330" y="602"/>
      <point x="363" y="570"/>
      <point x="363" y="426" type="curve" smooth="yes"/>
      <point x="363" y="343" type="line" smooth="yes"/>
      <point x="363" y="204"/>
      <point x="307" y="147"/>
      <point x="193" y="147" type="curve" smooth="yes"/>
      <point x="143" y="147"/>
      <point x="107" y="152"/>
      <point x="65" y="164" type="curve"/>
      <point x="65" y="8" type="line"/>
      <point x="100" y="-5"/>
      <point x="150" y="-10"/>
      <point x="199" y="-10" type="curve" smooth="yes"/>
      <point x="416" y="-10"/>
      <point x="555" y="112"/>
      <point x="555" y="389" type="curve" smooth="yes"/>
      <point x="555" y="651"/>
      <point x="443" y="750"/>
      <point x="280" y="750" type="curve" smooth="yes"/>
    </contour>
  </outline>
</glyph>
<glyph name="A" format="1">
  <advance width="650"/>
  <unicode hex="0041"/>
  <note>
    520
  </note>
  <outline>
    <contour>
      <point x="186" y="0" type="line"/>
      <point x="332" y="653" type="line"/>
      <point x="314" y="653" type="line"/>
      <point x="462" y="0" type="line"/>
      <point x="654" y="0" type="line"/>
      <point x="472" y="740" type="line"/>
      <point x="178" y="740" type="line"/>
      <point x="-4" y="0" type="line"/>
    </contour>
    <contour>
      <point x="526" y="172" type="line"/>
      <point x="490" y="337" type="line"/>
      <point x="159" y="337" type="line"/>
      <point x="123" y="172" type="line"/>
    </contour>
    <contour>
      <point x="654" y="0" type="move" name="ogonek"/>
    </contour>
    <contour>
      <point x="325" y="0" type="move" name="bottom"/>
    </contour>
    <contour>
      <point x="325" y="760" type="move" name="top"/>
    </contour>
  </outline>
</glyph>
<glyph name="B" format="1">
  <advance width="621"/>
  <unicode hex="0042"/>
  <outline>
    <contour>
      <point x="501" y="-10"/>
      <point x="608" y="65"/>
      <point x="608" y="209" type="curve" smooth="yes"/>
      <point x="608" y="316"/>
      <point x="547" y="369"/>
      <point x="467" y="384" type="curve"/>
      <point x="467" y="378" type="line"/>
      <point x="539" y="396"/>
      <point x="587" y="460"/>
      <point x="587" y="541" type="curve" smooth="yes"/>
      <point x="587" y="687"/>
      <point x="487" y="750"/>
      <point x="275" y="750" type="curve" smooth="yes"/>
      <point x="200" y="750"/>
      <point x="112" y="740"/>
      <point x="44" y="725" type="curve"/>
      <point x="44" y="7" type="line"/>
      <point x="105" y="-3"/>
      <point x="191" y="-10"/>
      <point x="250" y="-10" type="curve" smooth="yes"/>
    </contour>
    <contour>
      <point x="284" y="141"/>
      <point x="265" y="142"/>
      <point x="237" y="144" type="curve"/>
      <point x="237" y="593" type="line"/>
      <point x="261" y="597"/>
      <point x="282" y="599"/>
      <point x="308" y="599" type="curve" smooth="yes"/>
      <point x="376" y="599"/>
      <point x="402" y="578"/>
      <point x="402" y="527" type="curve" smooth="yes"/>
      <point x="402" y="477"/>
      <point x="377" y="456"/>
      <point x="302" y="456" type="curve" smooth="yes"/>
      <point x="221" y="456" type="line"/>
      <point x="221" y="299" type="line"/>
      <point x="315" y="299" type="line" smooth="yes"/>
      <point x="390" y="299"/>
      <point x="423" y="276"/>
      <point x="423" y="221" type="curve" smooth="yes"/>
      <point x="423" y="164"/>
      <point x="392" y="141"/>
      <point x="306" y="141" type="curve" smooth="yes"/>
    </contour>
    <contour>
      <point x="308" y="740" type="move" name="top"/>
    </contour>
    <contour>
      <point x="308" y="0" type="move" name="bottom"/>
    </contour>
  </outline>
</glyph>
<glyph name="C" format="1">
  <advance width="551"/>
  <unicode hex="0043"/>
  <outline>
    <contour>
      <point x="437" y="-10"/>
      <point x="496" y="-1"/>
      <point x="534" y="14" type="curve"/>
      <point x="534" y="178" type="line"/>
      <point x="489" y="164"/>
      <point x="447" y="155"/>
      <point x="414" y="155" type="curve" smooth="yes"/>
      <point x="289" y="155"/>
      <point x="232" y="205"/>
      <point x="232" y="370" type="curve" smooth="yes"/>
      <point x="232" y="530"/>
      <point x="293" y="585"/>
      <point x="414" y="585" type="curve" smooth="yes"/>
      <point x="456" y="585"/>
      <point x="496" y="579"/>
      <point x="534" y="571" type="curve"/>
      <point x="534" y="735" type="line"/>
      <point x="492" y="745"/>
      <point x="444" y="750"/>
      <point x="396" y="750" type="curve" smooth="yes"/>
      <point x="165" y="750"/>
      <point x="27" y="627"/>
      <point x="27" y="368" type="curve" smooth="yes"/>
      <point x="27" y="99"/>
      <point x="159" y="-10"/>
      <point x="385" y="-10" type="curve" smooth="yes"/>
    </contour>
    <contour>
      <point x="344" y="760" type="move" name="top"/>
    </contour>
    <contour>
      <point x="344" y="0" type="move" name="bottom"/>
    </contour>
  </outline>
</glyph>
<glyph name="D" format="1">
  <advance width="666"/>
  <unicode hex="0044"/>
  <outline>
    <contour>
      <point x="507" y="-10"/>
      <point x="639" y="106"/>
      <point x="639" y="370" type="curve" smooth="yes"/>
      <point x="639" y="632"/>
      <point x="514" y="750"/>
      <point x="263" y="750" type="curve" smooth="yes"/>
      <point x="185" y="750"/>
      <point x="112" y="740"/>
      <point x="44" y="725" type="curve"/>
      <point x="44" y="1" type="line"/>
      <point x="104" y="-6"/>
      <point x="174" y="-10"/>
      <point x="236" y="-10" type="curve" smooth="yes"/>
    </contour>
    <contour>
      <point x="279" y="153"/>
      <point x="262" y="153"/>
      <point x="240" y="154" type="curve"/>
      <point x="240" y="583" type="line"/>
      <point x="252" y="586"/>
      <point x="273" y="588"/>
      <point x="287" y="588" type="curve" smooth="yes"/>
      <point x="380" y="588"/>
      <point x="439" y="539"/>
      <point x="439" y="370" type="curve" smooth="yes"/>
      <point x="439" y="202"/>
      <point x="384" y="153"/>
      <point x="290" y="153" type="curve" smooth="yes"/>
    </contour>
    <contour>
      <point x="326" y="370" type="move" name="center"/>
    </contour>
    <contour>
      <point x="44" y="381" type="move" name="stroke"/>
    </contour>
    <contour>
      <point x="309" y="760" type="move" name="top"/>
    </contour>
    <contour>
      <point x="319" y="0" type="move" name="bottom"/>
    </contour>
  </outline>
</glyph>
<glyph name="E" format="1">
  <advance width="564"/>
  <unicode hex="0045"/>
  <outline>
    <contour>
      <point x="535" y="0" type="line"/>
      <point x="535" y="169" type="line"/>
      <point x="237" y="169" type="line"/>
      <point x="237" y="571" type="line"/>
      <point x="530" y="571" type="line"/>
      <point x="530" y="740" type="line"/>
      <point x="44" y="740" type="line"/>
      <point x="44" y="0" type="line"/>
    </contour>
    <contour>
      <point x="478" y="294" type="line"/>
      <point x="478" y="461" type="line"/>
      <point x="183" y="461" type="line"/>
      <point x="183" y="294" type="line"/>
    </contour>
    <contour>
      <point x="495" y="0" type="move" name="ogonek"/>
    </contour>
    <contour>
      <point x="298" y="760" type="move" name="top"/>
    </contour>
    <contour>
      <point x="18" y="740" type="move" name="topleft"/>
    </contour>
    <contour>
      <point x="298" y="0" type="move" name="bottom"/>
    </contour>
  </outline>
</glyph>
<glyph name="F" format="1">
  <advance width="535"/>
  <unicode hex="0046"/>
  <outline>
    <contour>
      <point x="240" y="0" type="line"/>
      <point x="240" y="567" type="line"/>
      <point x="530" y="567" type="line"/>
      <point x="530" y="740" type="line"/>
      <point x="44" y="740" type="line"/>
      <point x="44" y="0" type="line"/>
    </contour>
    <contour>
      <point x="481" y="267" type="line"/>
      <point x="481" y="440" type="line"/>
      <point x="183" y="440" type="line"/>
      <point x="183" y="267" type="line"/>
    </contour>
  </outline>
</glyph>
<glyph name="G" format="1">
  <advance width="626"/>
  <unicode hex="0047"/>
  <outline>
    <contour>
      <point x="478" y="-10"/>
      <point x="541" y="-4"/>
      <point x="598" y="5" type="curve"/>
      <point x="598" y="360" type="line"/>
      <point x="417" y="360" type="line"/>
      <point x="417" y="112" type="line"/>
      <point x="476" y="159" type="line"/>
      <point x="456" y="156"/>
      <point x="428" y="154"/>
      <point x="403" y="154" type="curve" smooth="yes"/>
      <point x="292" y="154"/>
      <point x="230" y="210"/>
      <point x="230" y="367" type="curve" smooth="yes"/>
      <point x="230" y="530"/>
      <point x="293" y="585"/>
      <point x="448" y="585" type="curve" smooth="yes"/>
      <point x="494" y="585"/>
      <point x="534" y="578"/>
      <point x="579" y="568" type="curve"/>
      <point x="579" y="732" type="line"/>
      <point x="532" y="744"/>
      <point x="487" y="750"/>
      <point x="425" y="750" type="curve" smooth="yes"/>
      <point x="168" y="750"/>
      <point x="27" y="627"/>
      <point x="27" y="370" type="curve" smooth="yes"/>
      <point x="27" y="109"/>
      <point x="162" y="-10"/>
      <point x="425" y="-10" type="curve" smooth="yes"/>
    </contour>
    <contour>
      <point x="375" y="760" type="move" name="top"/>
    </contour>
    <contour>
      <point x="375" y="0" type="move" name="bottom"/>
    </contour>
  </outline>
</glyph>
<glyph name="H" format="1">
  <advance width="683"/>
  <unicode hex="0048"/>
  <outline>
    <contour>
      <point x="240" y="0" type="line"/>
      <point x="240" y="288" type="line"/>
      <point x="443" y="288" type="line"/>
      <point x="443" y="0" type="line"/>
      <point x="639" y="0" type="line"/>
      <point x="639" y="740" type="line"/>
      <point x="443" y="740" type="line"/>
      <point x="443" y="467" type="line"/>
      <point x="240" y="467" type="line"/>
      <point x="240" y="740" type="line"/>
      <point x="44" y="740" type="line"/>
      <point x="44" y="0" type="line"/>
    </contour>
    <contour>
      <point x="342" y="600" type="move" name="center"/>
    </contour>
    <contour>
      <point x="342" y="760" type="move" name="top"/>
    </contour>
    <contour>
      <point x="14" y="740" type="move" name="topleft"/>
    </contour>
    <contour>
      <point x="342" y="0" type="move" name="bottom"/>
    </contour>
  </outline>
</glyph>
<glyph name="I" format="1">
  <advance width="284"/>
  <unicode hex="0049"/>
  <outline>
    <contour>
      <point x="240" y="0" type="line"/>
      <point x="240" y="740" type="line"/>
      <point x="44" y="740" type="line"/>
      <point x="44" y="0" type="line"/>
    </contour>
    <contour>
      <point x="239" y="0" type="move" name="ogonek"/>
    </contour>
    <contour>
      <point x="142" y="0" type="move" name="bottom"/>
    </contour>
    <contour>
      <point x="142" y="760" type="move" name="top"/>
    </contour>
  </outline>
</glyph>
<glyph name="J" format="1">
  <advance width="284"/>
  <unicode hex="004A"/>
  <outline>
    <contour>
      <point x="205" y="-66"/>
      <point x="240" y="36"/>
      <point x="240" y="161" type="curve" smooth="yes"/>
      <point x="240" y="740" type="line"/>
      <point x="44" y="740" type="line"/>
      <point x="44" y="153" type="line" smooth="yes"/>
      <point x="44" y="50"/>
      <point x="29" y="-13"/>
      <point x="-25" y="-91" type="curve"/>
      <point x="103" y="-175" type="line"/>
    </contour>
    <contour>
      <point x="142" y="760" type="move" name="top"/>
    </contour>
    <contour>
      <point x="240" y="0" type="move" name="bottom"/>
    </contour>
  </outline>
</glyph>
<glyph name="K" format="1">
  <advance width="619"/>
  <unicode hex="004B"/>
  <outline>
    <contour>
      <point x="654" y="0" type="line"/>
      <point x="424" y="408" type="line"/>
      <point x="422" y="353" type="line"/>
      <point x="636" y="740" type="line"/>
      <point x="433" y="740" type="line"/>
      <point x="232" y="375" type="line"/>
      <point x="445" y="0" type="line"/>
    </contour>
    <contour>
      <point x="240" y="0" type="line"/>
      <point x="240" y="740" type="line"/>
      <point x="44" y="740" type="line"/>
      <point x="44" y="0" type="line"/>
    </contour>
    <contour>
      <point x="301" y="288" type="line"/>
      <point x="301" y="467" type="line"/>
      <point x="214" y="467" type="line"/>
      <point x="214" y="288" type="line"/>
    </contour>
    <contour>
      <point x="317" y="740" type="move" name="top"/>
    </contour>
    <contour>
      <point x="323" y="0" type="move" name="bottom"/>
    </contour>
  </outline>
</glyph>
<glyph name="L" format="1">
  <advance width="518"/>
  <unicode hex="004C"/>
  <outline>
    <contour>
      <point x="516" y="0" type="line"/>
      <point x="516" y="173" type="line"/>
      <point x="240" y="173" type="line"/>
      <point x="240" y="740" type="line"/>
      <point x="44" y="740" type="line"/>
      <point x="44" y="0" type="line"/>
    </contour>
    <contour>
      <point x="398" y="447" type="move" name="periodcentered"/>
    </contour>
    <contour>
      <point x="146" y="760" type="move" name="top"/>
    </contour>
    <contour>
      <point x="146" y="427" type="move" name="slash"/>
    </contour>
    <contour>
      <point x="338" y="740" type="move" name="caronalt"/>
    </contour>
    <contour>
      <point x="280" y="0" type="move" name="bottom"/>
    </contour>
  </outline>
</glyph>
<glyph name="M" format="1">
  <advance width="868"/>
  <unicode hex="004D"/>
  <outline>
    <contour>
      <point x="229" y="0" type="line"/>
      <point x="229" y="544" type="line"/>
      <point x="190" y="544" type="line"/>
      <point x="358" y="110" type="line"/>
      <point x="510" y="110" type="line"/>
      <point x="671" y="544" type="line"/>
      <point x="639" y="544" type="line"/>
      <point x="639" y="0" type="line"/>
      <point x="822" y="0" type="line"/>
      <point x="822" y="740" type="line"/>
      <point x="580" y="740" type="line"/>
      <point x="430" y="316" type="line"/>
      <point x="445" y="316" type="line"/>
      <point x="288" y="740" type="line"/>
      <point x="46" y="740" type="line"/>
      <point x="46" y="0" type="line"/>
    </contour>
    <contour>
      <point x="447" y="740" type="move" name="top"/>
    </contour>
    <contour>
      <point x="447" y="0" type="move" name="bottom"/>
    </contour>
  </outline>
</glyph>
<glyph name="N" format="1">
  <advance width="690"/>
  <unicode hex="004E"/>
  <outline>
    <contour>
      <point x="227" y="0" type="line"/>
      <point x="227" y="460" type="line"/>
      <point x="198" y="460" type="line"/>
      <point x="451" y="0" type="line"/>
      <point x="646" y="0" type="line"/>
      <point x="646" y="740" type="line"/>
      <point x="463" y="740" type="line"/>
      <point x="463" y="280" type="line"/>
      <point x="492" y="280" type="line"/>
      <point x="239" y="740" type="line"/>
      <point x="44" y="740" type="line"/>
      <point x="44" y="0" type="line"/>
    </contour>
    <contour>
      <point x="345" y="760" type="move" name="top"/>
    </contour>
    <contour>
      <point x="345" y="0" type="move" name="bottom"/>
    </contour>
  </outline>
</glyph>
<glyph name="O" format="1">
  <advance width="698"/>
  <unicode hex="004F"/>
  <outline>
    <contour>
      <point x="539" y="-10"/>
      <point x="671" y="102"/>
      <point x="671" y="370" type="curve" smooth="yes"/>
      <point x="671" y="638"/>
      <point x="539" y="750"/>
      <point x="349" y="750" type="curve" smooth="yes"/>
      <point x="159" y="750"/>
      <point x="27" y="638"/>
      <point x="27" y="370" type="curve" smooth="yes"/>
      <point x="27" y="102"/>
      <point x="159" y="-10"/>
      <point x="349" y="-10" type="curve" smooth="yes"/>
    </contour>
    <contour>
      <point x="270" y="152"/>
      <point x="227" y="207"/>
      <point x="227" y="374" type="curve" smooth="yes"/>
      <point x="227" y="533"/>
      <point x="270" y="588"/>
      <point x="349" y="588" type="curve" smooth="yes"/>
      <point x="428" y="588"/>
      <point x="471" y="533"/>
      <point x="471" y="366" type="curve" smooth="yes"/>
      <point x="471" y="207"/>
      <point x="428" y="152"/>
      <point x="349" y="152" type="curve" smooth="yes"/>
    </contour>
    <contour>
      <point x="349" y="370" type="move" name="center"/>
    </contour>
    <contour>
      <point x="445" y="0" type="move" name="ogonek"/>
    </contour>
    <contour>
      <point x="349" y="760" type="move" name="top"/>
    </contour>
    <contour>
      <point x="441" y="740" type="move" name="topright"/>
    </contour>
    <contour>
      <point x="21" y="740" type="move" name="topleft"/>
    </contour>
    <contour>
      <point x="349" y="0" type="move" name="bottom"/>
    </contour>
  </outline>
</glyph>
<glyph name="P" format="1">
  <advance width="609"/>
  <unicode hex="0050"/>
  <outline>
    <contour>
      <point x="240" y="0" type="line"/>
      <point x="240" y="198" type="line"/>
      <point x="257" y="198"/>
      <point x="268" y="197"/>
      <point x="287" y="197" type="curve" smooth="yes"/>
      <point x="478" y="197"/>
      <point x="586" y="292"/>
      <point x="586" y="473" type="curve" smooth="yes"/>
      <point x="586" y="665"/>
      <point x="478" y="750"/>
      <point x="265" y="750" type="curve" smooth="yes"/>
      <point x="185" y="750"/>
      <point x="112" y="740"/>
      <point x="44" y="725" type="curve"/>
      <point x="44" y="0" type="line"/>
    </contour>
    <contour>
      <point x="269" y="354"/>
      <point x="255" y="355"/>
      <point x="240" y="357" type="curve"/>
      <point x="240" y="589" type="line"/>
      <point x="253" y="592"/>
      <point x="264" y="593"/>
      <point x="284" y="593" type="curve" smooth="yes"/>
      <point x="360" y="593"/>
      <point x="396" y="557"/>
      <point x="396" y="471" type="curve" smooth="yes"/>
      <point x="396" y="385"/>
      <point x="360" y="354"/>
      <point x="289" y="354" type="curve" smooth="yes"/>
    </contour>
  </outline>
</glyph>
<glyph name="Q" format="1">
  <advance width="698"/>
  <unicode hex="0051"/>
  <outline>
    <contour>
      <point x="659" y="-18" type="line"/>
      <point x="575" y="-6"/>
      <point x="492" y="16"/>
      <point x="367" y="65" type="curve"/>
      <point x="303" y="17" type="line"/>
      <point x="537" y="-17"/>
      <point x="671" y="112"/>
      <point x="671" y="370" type="curve" smooth="yes"/>
      <point x="671" y="638"/>
      <point x="539" y="750"/>
      <point x="349" y="750" type="curve" smooth="yes"/>
      <point x="159" y="750"/>
      <point x="27" y="638"/>
      <point x="27" y="370" type="curve" smooth="yes"/>
      <point x="27" y="92"/>
      <point x="172" y="-90"/>
      <point x="622" y="-177" type="curve"/>
    </contour>
    <contour>
      <point x="270" y="152"/>
      <point x="227" y="207"/>
      <point x="227" y="374" type="curve" smooth="yes"/>
      <point x="227" y="533"/>
      <point x="270" y="588"/>
      <point x="349" y="588" type="curve" smooth="yes"/>
      <point x="428" y="588"/>
      <point x="471" y="533"/>
      <point x="471" y="366" type="curve" smooth="yes"/>
      <point x="471" y="207"/>
      <point x="428" y="152"/>
      <point x="349" y="152" type="curve" smooth="yes"/>
    </contour>
  </outline>
</glyph>
<glyph name="R" format="1">
  <advance width="637"/>
  <unicode hex="0052"/>
  <outline>
    <contour>
      <point x="237" y="0" type="line"/>
      <point x="237" y="252" type="line"/>
      <point x="255" y="252"/>
      <point x="269" y="251"/>
      <point x="292" y="251" type="curve" smooth="yes"/>
      <point x="465" y="251"/>
      <point x="584" y="337"/>
      <point x="584" y="500" type="curve" smooth="yes"/>
      <point x="584" y="668"/>
      <point x="479" y="750"/>
      <point x="268" y="750" type="curve" smooth="yes"/>
      <point x="185" y="750"/>
      <point x="112" y="740"/>
      <point x="44" y="725" type="curve"/>
      <point x="44" y="0" type="line"/>
    </contour>
    <contour>
      <point x="637" y="0" type="line"/>
      <point x="432" y="336" type="line"/>
      <point x="230" y="336" type="line"/>
      <point x="429" y="0" type="line"/>
    </contour>
    <contour>
      <point x="269" y="404"/>
      <point x="255" y="405"/>
      <point x="237" y="407" type="curve"/>
      <point x="237" y="594" type="line"/>
      <point x="253" y="597"/>
      <point x="270" y="599"/>
      <point x="296" y="599" type="curve" smooth="yes"/>
      <point x="360" y="599"/>
      <point x="399" y="568"/>
      <point x="399" y="500" type="curve" smooth="yes"/>
      <point x="399" y="429"/>
      <point x="360" y="404"/>
      <point x="292" y="404" type="curve" smooth="yes"/>
    </contour>
    <contour>
      <point x="311" y="760" type="move" name="top"/>
    </contour>
    <contour>
      <point x="341" y="0" type="move" name="bottom"/>
    </contour>
  </outline>
</glyph>
<glyph name="S" format="1">
  <advance width="525"/>
  <unicode hex="0053"/>
  <outline>
    <contour>
      <point x="408" y="-10"/>
      <point x="515" y="83"/>
      <point x="515" y="228" type="curve" smooth="yes"/>
      <point x="515" y="349"/>
      <point x="445" y="416"/>
      <point x="326" y="451" type="curve" smooth="yes"/>
      <point x="224" y="481"/>
      <point x="207" y="496"/>
      <point x="207" y="527" type="curve" smooth="yes"/>
      <point x="207" y="558"/>
      <point x="233" y="586"/>
      <point x="341" y="586" type="curve" smooth="yes"/>
      <point x="382" y="586"/>
      <point x="434" y="580"/>
      <point x="474" y="570" type="curve"/>
      <point x="474" y="733" type="line"/>
      <point x="432" y="743"/>
      <point x="377" y="750"/>
      <point x="322" y="750" type="curve" smooth="yes"/>
      <point x="109" y="750"/>
      <point x="10" y="659"/>
      <point x="10" y="512" type="curve" smooth="yes"/>
      <point x="10" y="395"/>
      <point x="82" y="321"/>
      <point x="188" y="292" type="curve" smooth="yes"/>
      <point x="298" y="262"/>
      <point x="318" y="243"/>
      <point x="318" y="210" type="curve" smooth="yes"/>
      <point x="318" y="177"/>
      <point x="291" y="154"/>
      <point x="212" y="154" type="curve" smooth="yes"/>
      <point x="154" y="154"/>
      <point x="88" y="166"/>
      <point x="33" y="182" type="curve"/>
      <point x="33" y="19" type="line"/>
      <point x="87" y="0"/>
      <point x="163" y="-10"/>
      <point x="218" y="-10" type="curve" smooth="yes"/>
    </contour>
    <contour>
      <point x="268" y="760" type="move" name="top"/>
    </contour>
    <contour>
      <point x="268" y="0" type="move" name="bottom"/>
    </contour>
  </outline>
</glyph>
<glyph name="T" format="1">
  <advance width="593"/>
  <unicode hex="0054"/>
  <outline>
    <contour>
      <point x="395" y="0" type="line"/>
      <point x="395" y="567" type="line"/>
      <point x="591" y="567" type="line"/>
      <point x="591" y="740" type="line"/>
      <point x="2" y="740" type="line"/>
      <point x="2" y="567" type="line"/>
      <point x="198" y="567" type="line"/>
      <point x="198" y="0" type="line"/>
    </contour>
    <contour>
      <point x="297" y="350" type="move" name="center"/>
    </contour>
    <contour>
      <point x="297" y="0" type="move" name="bottom"/>
    </contour>
    <contour>
      <point x="297" y="760" type="move" name="top"/>
    </contour>
  </outline>
</glyph>
<glyph name="U" format="1">
  <advance width="665"/>
  <unicode hex="0055"/>
  <outline>
    <contour>
      <point x="530" y="-10"/>
      <point x="626" y="79"/>
      <point x="626" y="302" type="curve" smooth="yes"/>
      <point x="626" y="740" type="line"/>
      <point x="434" y="740" type="line"/>
      <point x="434" y="280" type="line" smooth="yes"/>
      <point x="434" y="185"/>
      <point x="397" y="154"/>
      <point x="335" y="154" type="curve" smooth="yes"/>
      <point x="273" y="154"/>
      <point x="235" y="185"/>
      <point x="235" y="280" type="curve" smooth="yes"/>
      <point x="235" y="740" type="line"/>
      <point x="39" y="740" type="line"/>
      <point x="39" y="302" type="line" smooth="yes"/>
      <point x="39" y="79"/>
      <point x="138" y="-10"/>
      <point x="335" y="-10" type="curve" smooth="yes"/>
    </contour>
    <contour>
      <point x="461" y="0" type="move" name="ogonek"/>
    </contour>
    <contour>
      <point x="335" y="760" type="move" name="top"/>
    </contour>
    <contour>
      <point x="468" y="740" type="move" name="topright"/>
    </contour>
    <contour>
      <point x="335" y="0" type="move" name="bottom"/>
    </contour>
  </outline>
</glyph>
<glyph name="V" format="1">
  <advance width="640"/>
  <unicode hex="0056"/>
  <outline>
    <contour>
      <point x="470" y="0" type="line"/>
      <point x="649" y="740" type="line"/>
      <point x="462" y="740" type="line"/>
      <point x="306" y="75" type="line"/>
      <point x="344" y="75" type="line"/>
      <point x="192" y="740" type="line"/>
      <point x="-9" y="740" type="line"/>
      <point x="170" y="0" type="line"/>
    </contour>
  </outline>
</glyph>
<glyph name="W" format="1">
  <advance width="1014"/>
  <unicode hex="0057"/>
  <outline>
    <contour>
      <point x="408" y="0" type="line"/>
      <point x="538" y="600" type="line"/>
      <point x="488" y="600" type="line"/>
      <point x="606" y="0" type="line"/>
      <point x="860" y="0" type="line"/>
      <point x="1012" y="740" type="line"/>
      <point x="829" y="740" type="line"/>
      <point x="697" y="69" type="line"/>
      <point x="750" y="69" type="line"/>
      <point x="620" y="740" type="line"/>
      <point x="408" y="740" type="line"/>
      <point x="268" y="69" type="line"/>
      <point x="325" y="69" type="line"/>
      <point x="199" y="740" type="line"/>
      <point x="2" y="740" type="line"/>
      <point x="154" y="0" type="line"/>
    </contour>
    <contour>
      <point x="507" y="760" type="move" name="top"/>
    </contour>
    <contour>
      <point x="507" y="0" type="move" name="bottom"/>
    </contour>
  </outline>
</glyph>
<glyph name="X" format="1">
  <advance width="645"/>
  <unicode hex="0058"/>
  <outline>
    <contour>
      <point x="666" y="0" type="line"/>
      <point x="436" y="389" type="line"/>
      <point x="322" y="548" type="line"/>
      <point x="211" y="740" type="line"/>
      <point x="-3" y="740" type="line"/>
      <point x="208" y="388" type="line"/>
      <point x="322" y="232" type="line"/>
      <point x="455" y="0" type="line"/>
    </contour>
    <contour>
      <point x="188" y="0" type="line"/>
      <point x="322" y="232" type="line"/>
      <point x="436" y="389" type="line"/>
      <point x="643" y="740" type="line"/>
      <point x="433" y="740" type="line"/>
      <point x="322" y="548" type="line"/>
      <point x="208" y="388" type="line"/>
      <point x="-26" y="0" type="line"/>
    </contour>
  </outline>
</glyph>
<glyph name="Y" format="1">
  <advance width="593"/>
  <unicode hex="0059"/>
  <outline>
    <contour>
      <point x="395" y="0" type="line"/>
      <point x="395" y="385" type="line"/>
      <point x="355" y="230" type="line"/>
      <point x="626" y="740" type="line"/>
      <point x="438" y="740" type="line"/>
      <point x="278" y="435" type="line"/>
      <point x="328" y="435" type="line"/>
      <point x="169" y="740" type="line"/>
      <point x="-36" y="740" type="line"/>
      <point x="239" y="230" type="line"/>
      <point x="199" y="388" type="line"/>
      <point x="199" y="0" type="line"/>
    </contour>
    <contour>
      <point x="298" y="760" type="move" name="top"/>
    </contour>
    <contour>
      <point x="297" y="0" type="move" name="bottom"/>
    </contour>
    <contour>
      <point x="-23" y="740" type="move" name="topleft"/>
    </contour>
  </outline>
</glyph>
<glyph name="Z" format="1">
  <advance width="556"/>
  <unicode hex="005A"/>
  <outline>
    <contour>
      <point x="540" y="0" type="line"/>
      <point x="540" y="173" type="line"/>
      <point x="251" y="173" type="line"/>
      <point x="251" y="140" type="line"/>
      <point x="535" y="630" type="line"/>
      <point x="535" y="740" type="line"/>
      <point x="21" y="740" type="line"/>
      <point x="21" y="567" type="line"/>
      <point x="300" y="567" type="line"/>
      <point x="300" y="600" type="line"/>
      <point x="16" y="110" type="line"/>
      <point x="16" y="0" type="line"/>
    </contour>
    <contour>
      <point x="279" y="760" type="move" name="top"/>
    </contour>
    <contour>
      <point x="275" y="0" type="move" name="bottom"/>
    </contour>
  </outline>
</glyph>
<glyph name="a" format="1">
  <advance width="502"/>
  <unicode hex="0061"/>
  <outline>
    <contour>
      <point x="221" y="-11"/>
      <point x="264" y="7"/>
      <point x="287" y="56" type="curve"/>
      <point x="295" y="56" type="line"/>
      <point x="309" y="0" type="line"/>
      <point x="465" y="0" type="line"/>
      <point x="465" y="323" type="line" smooth="yes"/>
      <point x="465" y="498"/>
      <point x="393" y="559"/>
      <point x="224" y="559" type="curve" smooth="yes"/>
      <point x="170" y="559"/>
      <point x="106" y="552"/>
      <point x="56" y="540" type="curve"/>
      <point x="56" y="388" type="line"/>
      <point x="98" y="400"/>
      <point x="146" y="406"/>
      <point x="185" y="406" type="curve" smooth="yes"/>
      <point x="258" y="406"/>
      <point x="278" y="386"/>
      <point x="278" y="332" type="curve" smooth="yes"/>
      <point x="278" y="144" type="line"/>
      <point x="266" y="135"/>
      <point x="253" y="132"/>
      <point x="241" y="132" type="curve" smooth="yes"/>
      <point x="217" y="132"/>
      <point x="200" y="147"/>
      <point x="200" y="177" type="curve" smooth="yes"/>
      <point x="200" y="209"/>
      <point x="219" y="228"/>
      <point x="255" y="230" type="curve" smooth="yes"/>
      <point x="323" y="234" type="line"/>
      <point x="297" y="338" type="line"/>
      <point x="231" y="334" type="line" smooth="yes"/>
      <point x="74" y="324"/>
      <point x="13" y="262"/>
      <point x="13" y="153" type="curve" smooth="yes"/>
      <point x="13" y="55"/>
      <point x="77" y="-11"/>
      <point x="170" y="-11" type="curve" smooth="yes"/>
    </contour>
    <contour>
      <point x="465" y="0" type="move" name="ogonek"/>
    </contour>
    <contour>
      <point x="249" y="0" type="move" name="bottom"/>
    </contour>
    <contour>
      <point x="249" y="600" type="move" name="top"/>
    </contour>
  </outline>
</glyph>
<glyph name="o" format="1">
  <advance width="534"/>
  <unicode hex="006F"/>
  <outline>
    <contour>
      <point x="425" y="-11"/>
      <point x="514" y="79"/>
      <point x="514" y="273" type="curve" smooth="yes"/>
      <point x="514" y="463"/>
      <point x="425" y="559"/>
      <point x="267" y="559" type="curve" smooth="yes"/>
      <point x="109" y="559"/>
      <point x="20" y="468"/>
      <point x="20" y="271" type="curve" smooth="yes"/>
      <point x="20" y="79"/>
      <point x="109" y="-11"/>
      <point x="267" y="-11" type="curve" smooth="yes"/>
    </contour>
    <contour>
      <point x="233" y="131"/>
      <point x="217" y="151"/>
      <point x="217" y="273" type="curve" smooth="yes"/>
      <point x="217" y="395"/>
      <point x="235" y="417"/>
      <point x="267" y="417" type="curve" smooth="yes"/>
      <point x="299" y="417"/>
      <point x="317" y="395"/>
      <point x="317" y="271" type="curve" smooth="yes"/>
      <point x="317" y="151"/>
      <point x="301" y="131"/>
      <point x="267" y="131" type="curve" smooth="yes"/>
    </contour>
    <contour>
      <point x="267" y="275" type="move" name="center"/>
    </contour>
    <contour>
      <point x="353" y="0" type="move" name="ogonek"/>
    </contour>
    <contour>
      <point x="267" y="600" type="move" name="top"/>
    </contour>
    <contour>
      <point x="267" y="550" type="move" name="topright"/>
    </contour>
    <contour>
      <point x="267" y="0" type="move" name="bottom"/>
    </contour>
  </outline>
</glyph>
<glyph name="AE" format="1">
  <advance width="921"/>
  <unicode hex="00C6"/>
  <outline>
    <contour>
      <point x="189" y="0" type="line"/>
      <point x="319" y="571" type="line"/>
      <point x="484" y="571" type="line"/>
      <point x="484" y="740" type="line"/>
      <point x="178" y="740" type="line"/>
      <point x="-4" y="0" type="line"/>
    </contour>
    <contour>
      <point x="479" y="172" type="line"/>
      <point x="479" y="337" type="line"/>
      <point x="159" y="337" type="line"/>
      <point x="123" y="172" type="line"/>
    </contour>
    <contour>
      <point x="892" y="0" type="line"/>
      <point x="892" y="169" type="line"/>
      <point x="622" y="169" type="line"/>
      <point x="587" y="571" type="line"/>
      <point x="887" y="571" type="line"/>
      <point x="887" y="740" type="line"/>
      <point x="391" y="740" type="line"/>
      <point x="445" y="0" type="line"/>
    </contour>
    <contour>
      <point x="835" y="294" type="line"/>
      <point x="835" y="461" type="line"/>
      <point x="539" y="461" type="line"/>
      <point x="539" y="294" type="line"/>
    </contour>
    <contour>
      <point x="477" y="760" type="move" name="top"/>
    </contour>
    <contour>
      <point x="477" y="0" type="move" name="bottom"/>
    </contour>
  </outline>
</glyph>
<glyph name="Oslash" format="1">
  <advance width="698"/>
  <unicode hex="00D8"/>
  <outline>
    <component base="O"/>
    <component base="slashcomb.case" xOffset="49"/>
    <contour>
      <point x="350" y="760" type="move" name="top"/>
    </contour>
    <contour>
      <point x="350" y="0" type="move" name="bottom"/>
    </contour>
  </outline>
</glyph>
<glyph name="Thorn" format="1">
  <advance width="614"/>
  <unicode hex="00DE"/>
  <outline>
    <contour>
      <point x="240" y="0" type="line"/>
      <point x="240" y="105" type="line"/>
      <point x="257" y="105"/>
      <point x="269" y="104"/>
      <point x="289" y="104" type="curve" smooth="yes"/>
      <point x="479" y="104"/>
      <point x="586" y="197"/>
      <point x="586" y="380" type="curve" smooth="yes"/>
      <point x="586" y="572"/>
      <point x="478" y="657"/>
      <point x="267" y="657" type="curve" smooth="yes"/>
      <point x="259" y="657"/>
      <point x="248" y="656"/>
      <point x="240" y="656" type="curve"/>
      <point x="240" y="740" type="line"/>
      <point x="44" y="740" type="line"/>
      <point x="44" y="0" type="line"/>
    </contour>
    <contour>
      <point x="269" y="261"/>
      <point x="255" y="262"/>
      <point x="240" y="264" type="curve"/>
      <point x="240" y="496" type="line"/>
      <point x="253" y="499"/>
      <point x="264" y="500"/>
      <point x="284" y="500" type="curve" smooth="yes"/>
      <point x="360" y="500"/>
      <point x="396" y="464"/>
      <point x="396" y="378" type="curve" smooth="yes"/>
      <point x="396" y="292"/>
      <point x="360" y="261"/>
      <point x="289" y="261" type="curve" smooth="yes"/>
    </contour>
  </outline>
</glyph>
<glyph name="OE" format="1">
  <advance width="932"/>
  <unicode hex="0152"/>
  <outline>
    <contour>
      <point x="447" y="-5"/>
      <point x="506" y="0"/>
      <point x="549" y="0" type="curve" smooth="yes"/>
      <point x="903" y="0" type="line"/>
      <point x="903" y="169" type="line"/>
      <point x="617" y="169" type="line"/>
      <point x="617" y="571" type="line"/>
      <point x="898" y="571" type="line"/>
      <point x="898" y="740" type="line"/>
      <point x="549" y="740" type="line" smooth="yes"/>
      <point x="506" y="740"/>
      <point x="457" y="745"/>
      <point x="411" y="745" type="curve" smooth="yes"/>
      <point x="173" y="745"/>
      <point x="27" y="629"/>
      <point x="27" y="370" type="curve" smooth="yes"/>
      <point x="27" y="115"/>
      <point x="155" y="-5"/>
      <point x="401" y="-5" type="curve" smooth="yes"/>
    </contour>
    <contour>
      <point x="282" y="157"/>
      <point x="227" y="206"/>
      <point x="227" y="370" type="curve" smooth="yes"/>
      <point x="227" y="533"/>
      <point x="282" y="582"/>
      <point x="374" y="582" type="curve" smooth="yes"/>
      <point x="385" y="582"/>
      <point x="402" y="582"/>
      <point x="424" y="581" type="curve"/>
      <point x="424" y="158" type="line"/>
      <point x="402" y="157"/>
      <point x="388" y="157"/>
      <point x="374" y="157" type="curve" smooth="yes"/>
    </contour>
    <contour>
      <point x="846" y="294" type="line"/>
      <point x="846" y="461" type="line"/>
      <point x="563" y="461" type="line"/>
      <point x="563" y="294" type="line"/>
    </contour>
    <contour>
      <point x="521" y="760" type="move" name="top"/>
    </contour>
    <contour>
      <point x="521" y="0" type="move" name="bottom"/>
    </contour>
  </outline>
</glyph>
<glyph name="Schwa" format="1">
  <advance width="685"/>
  <unicode hex="018F"/>
  <outline>
    <contour>
      <point x="521" y="-10"/>
      <point x="658" y="109"/>
      <point x="658" y="360" type="curve" smooth="yes"/>
      <point x="658" y="625"/>
      <point x="527" y="750"/>
      <point x="266" y="750" type="curve" smooth="yes"/>
      <point x="204" y="750"/>
      <point x="128" y="743"/>
      <point x="68" y="729" type="curve"/>
      <point x="68" y="568" type="line"/>
      <point x="122" y="582"/>
      <point x="189" y="590"/>
      <point x="246" y="590" type="curve" smooth="yes"/>
      <point x="401" y="590"/>
      <point x="463" y="536"/>
      <point x="463" y="356" type="curve" smooth="yes"/>
      <point x="463" y="193"/>
      <point x="428" y="148"/>
      <point x="345" y="148" type="curve" smooth="yes"/>
      <point x="256" y="148"/>
      <point x="224" y="199"/>
      <point x="224" y="356" type="curve"/>
      <point x="146" y="282" type="line"/>
      <point x="532" y="282" type="line"/>
      <point x="532" y="429" type="line"/>
      <point x="22" y="429" type="line"/>
      <point x="22" y="360" type="line" smooth="yes"/>
      <point x="22" y="99"/>
      <point x="161" y="-10"/>
      <point x="344" y="-10" type="curve" smooth="yes"/>
    </contour>
    <contour>
      <point x="347" y="740" type="move" name="top"/>
    </contour>
    <contour>
      <point x="347" y="0" type="move" name="bottom"/>
    </contour>
  </outline>
</glyph>
<glyph name="Ohorn" format="1">
  <advance width="698"/>
  <unicode hex="01A0"/>
  <outline>
    <contour>
      <point x="542" y="-10"/>
      <point x="671" y="102"/>
      <point x="671" y="370" type="curve" smooth="yes"/>
      <point x="671" y="530"/>
      <point x="624" y="635"/>
      <point x="545" y="692" type="curve"/>
      <point x="515" y="652" type="line"/>
      <point x="611" y="652"/>
      <point x="681" y="692"/>
      <point x="681" y="806" type="curve" smooth="yes"/>
      <point x="681" y="836"/>
      <point x="679" y="863"/>
      <point x="671" y="888" type="curve"/>
      <point x="538" y="888" type="line"/>
      <point x="544" y="862"/>
      <point x="546" y="839"/>
      <point x="546" y="818" type="curve" smooth="yes"/>
      <point x="546" y="759"/>
      <point x="520" y="740"/>
      <point x="473" y="740" type="curve" smooth="yes"/>
      <point x="431" y="740"/>
      <point x="402" y="750"/>
      <point x="349" y="750" type="curve" smooth="yes"/>
      <point x="159" y="750"/>
      <point x="27" y="638"/>
      <point x="27" y="370" type="curve" smooth="yes"/>
      <point x="27" y="102"/>
      <point x="156" y="-10"/>
      <point x="349" y="-10" type="curve" smooth="yes"/>
    </contour>
    <contour>
      <point x="270" y="152"/>
      <point x="227" y="207"/>
      <point x="227" y="374" type="curve" smooth="yes"/>
      <point x="227" y="533"/>
      <point x="270" y="588"/>
      <point x="349" y="588" type="curve" smooth="yes"/>
      <point x="428" y="588"/>
      <point x="471" y="533"/>
      <point x="471" y="366" type="curve" smooth="yes"/>
      <point x="471" y="207"/>
      <point x="428" y="152"/>
      <point x="349" y="152" type="curve" smooth="yes"/>
    </contour>
    <contour>
      <point x="349" y="760" type="move" name="top"/>
    </contour>
    <contour>
      <point x="349" y="0" type="move" name="bottom"/>
    </contour>
  </outline>
</glyph>
<glyph name="Uhorn" format="1">
  <advance width="670"/>
  <unicode hex="01AF"/>
  <outline>
    <contour>
      <point x="709" y="836"/>
      <point x="707" y="863"/>
      <point x="699" y="888" type="curve"/>
      <point x="566" y="888" type="line"/>
      <point x="572" y="862"/>
      <point x="574" y="839"/>
      <point x="574" y="818" type="curve" smooth="yes"/>
      <point x="574" y="759"/>
      <point x="548" y="740"/>
      <point x="501" y="740" type="curve" smooth="yes"/>
      <point x="434" y="740" type="line"/>
      <point x="434" y="280" type="line" smooth="yes"/>
      <point x="434" y="185"/>
      <point x="397" y="154"/>
      <point x="335" y="154" type="curve" smooth="yes"/>
      <point x="273" y="154"/>
      <point x="235" y="185"/>
      <point x="235" y="280" type="curve" smooth="yes"/>
      <point x="235" y="740" type="line"/>
      <point x="39" y="740" type="line"/>
      <point x="39" y="302" type="line" smooth="yes"/>
      <point x="39" y="79"/>
      <point x="138" y="-10"/>
      <point x="335" y="-10" type="curve" smooth="yes"/>
      <point x="530" y="-10"/>
      <point x="626" y="79"/>
      <point x="626" y="302" type="curve" smooth="yes"/>
      <point x="626" y="666" type="line"/>
      <point x="677" y="685"/>
      <point x="709" y="729"/>
      <point x="709" y="806" type="curve" smooth="yes"/>
    </contour>
    <contour>
      <point x="333" y="760" type="move" name="top"/>
    </contour>
    <contour>
      <point x="333" y="0" type="move" name="bottom"/>
    </contour>
  </outline>
</glyph>
<glyph name="slashshortcomb" format="1">
  <advance width="400"/>
  <unicode hex="0337"/>
  <outline>
    <contour>
      <point x="383" y="406" type="line"/>
      <point x="328" y="517" type="line"/>
      <point x="17" y="368" type="line"/>
      <point x="72" y="257" type="line"/>
    </contour>
    <contour>
      <point x="200" y="387" type="move" name="_slash"/>
    </contour>
  </outline>
</glyph>
<glyph name="Germandbls" format="1">
  <advance width="830"/>
  <unicode hex="1E9E"/>
  <outline>
    <contour>
      <point x="717" y="-10"/>
      <point x="820" y="83"/>
      <point x="820" y="228" type="curve" smooth="yes"/>
      <point x="820" y="348"/>
      <point x="753" y="410"/>
      <point x="638" y="449" type="curve" smooth="yes"/>
      <point x="549" y="479"/>
      <point x="530" y="494"/>
      <point x="530" y="527" type="curve" smooth="yes"/>
      <point x="530" y="560"/>
      <point x="555" y="588"/>
      <point x="653" y="588" type="curve" smooth="yes"/>
      <point x="692" y="588"/>
      <point x="742" y="582"/>
      <point x="781" y="572" type="curve"/>
      <point x="781" y="733" type="line"/>
      <point x="740" y="743"/>
      <point x="687" y="750"/>
      <point x="635" y="750" type="curve" smooth="yes"/>
      <point x="430" y="750"/>
      <point x="335" y="659"/>
      <point x="335" y="512" type="curve" smooth="yes"/>
      <point x="335" y="396"/>
      <point x="404" y="325"/>
      <point x="506" y="294" type="curve" smooth="yes"/>
      <point x="604" y="264"/>
      <point x="625" y="245"/>
      <point x="625" y="210" type="curve" smooth="yes"/>
      <point x="625" y="175"/>
      <point x="599" y="152"/>
      <point x="529" y="152" type="curve" smooth="yes"/>
      <point x="473" y="152"/>
      <point x="410" y="164"/>
      <point x="357" y="180" type="curve"/>
      <point x="357" y="19" type="line"/>
      <point x="409" y="1"/>
      <point x="482" y="-10"/>
      <point x="535" y="-10" type="curve" smooth="yes"/>
    </contour>
    <contour>
      <point x="240" y="0" type="line"/>
      <point x="240" y="503" type="line" smooth="yes"/>
      <point x="240" y="562"/>
      <point x="268" y="589"/>
      <point x="315" y="589" type="curve" smooth="yes"/>
      <point x="338" y="589"/>
      <point x="356" y="582"/>
      <point x="373" y="567" type="curve"/>
      <point x="492" y="707" type="line"/>
      <point x="452" y="733"/>
      <point x="392" y="750"/>
      <point x="315" y="750" type="curve" smooth="yes"/>
      <point x="135" y="750"/>
      <point x="44" y="651"/>
      <point x="44" y="478" type="curve" smooth="yes"/>
      <point x="44" y="0" type="line"/>
    </contour>
  </outline>
</glyph>
<glyph name="slashcomb.case" format="1">
  <advance width="690"/>
  <outline>
    <contour>
      <point x="590" y="714" type="line"/>
      <point x="505" y="771" type="line"/>
      <point x="10" y="26" type="line"/>
      <point x="95" y="-31" type="line"/>
    </contour>
    <contour>
      <point x="300" y="370" type="move" name="_center"/>
    </contour>
  </outline>
</glyph>
<glyph name="slashcomb" format="1">
  <advance width="600"/>
  <outline>
    <contour>
      <point x="204" y="37" type="line"/>
      <point x="240" y="114" type="line"/>
      <point x="426" y="397" type="line"/>
      <point x="480" y="456" type="line"/>
      <point x="525" y="524" type="line"/>
      <point x="441" y="581" type="line"/>
      <point x="396" y="513" type="line"/>
      <point x="360" y="436" type="line"/>
      <point x="174" y="153" type="line"/>
      <point x="120" y="94" type="line"/>
      <point x="75" y="26" type="line"/>
      <point x="159" y="-31" type="line"/>
    </contour>
    <contour>
      <point x="300" y="275" type="move" name="_center"/>
    </contour>
  </outline>
</glyph>
<glyph name="slashshortcomb.case" format="1">
  <advance width="460"/>
  <outline>
    <contour>
      <point x="469" y="443" type="line"/>
      <point x="410" y="562" type="line"/>
      <point x="15" y="372" type="line"/>
      <point x="74" y="253" type="line"/>
    </contour>
    <contour>
      <point x="200" y="387" type="move" name="_slash"/>
    </contour>
  </outline>
</glyph>
<glyph name="strokelongcomb.case" format="1">
  <advance width="683"/>
  <outline>
    <contour>
      <point x="685" y="520" type="line"/>
      <point x="685" y="640" type="line"/>
      <point x="2" y="640" type="line"/>
      <point x="2" y="520" type="line"/>
    </contour>
    <contour>
      <point x="344" y="580" type="move" name="_center"/>
    </contour>
  </outline>
</glyph>
<glyph name="strokeshortcomb.D" format="1">
  <advance width="600"/>
  <outline>
    <contour>
      <point x="462" y="485" type="line"/>
      <point x="462" y="615" type="line"/>
      <point x="124" y="615" type="line"/>
      <point x="124" y="485" type="line"/>
    </contour>
    <contour>
      <point x="168" y="550" type="move" name="_stroke"/>
    </contour>
  </outline>
</glyph>
<glyph name="strokeshortcomb.case" format="1">
  <advance width="560"/>
  <outline>
    <contour>
      <point x="490" y="475" type="line"/>
      <point x="490" y="605" type="line"/>
      <point x="50" y="605" type="line"/>
      <point x="50" y="475" type="line"/>
    </contour>
    <contour>
      <point x="270" y="540" type="move" name="_center"/>
    </contour>
  </outline>
</glyph>
<glyph name="strokeshortcomb.d" format="1">
  <advance width="600"/>
  <outline>
    <contour>
      <point x="339" y="485" type="line"/>
      <point x="339" y="615" type="line"/>
      <point x="-8" y="615" type="line"/>
      <point x="-8" y="485" type="line"/>
    </contour>
    <contour>
      <point x="300" y="550" type="move" name="_stroke"/>
    </contour>
  </outline>
</glyph>
<glyph name="strokeshortcomb.t" format="1">
  <advance width="600"/>
  <outline>
    <contour>
      <point x="588" y="485" type="line"/>
      <point x="588" y="615" type="line"/>
      <point x="251" y="615" type="line"/>
      <point x="251" y="485" type="line"/>
    </contour>
    <contour>
      <point x="300" y="550" type="move" name="_stroke"/>
    </contour>
  </outline>
</glyph>
